G75*
G70*
%OFA0B0*%
%FSLAX24Y24*%
%IPPOS*%
%LPD*%
%AMOC8*
5,1,8,0,0,1.08239X$1,22.5*
%
%ADD10C,0.0000*%
%ADD11R,0.0430X0.0790*%
%ADD12C,0.0669*%
%ADD13OC8,0.0520*%
%ADD14OC8,0.0750*%
%ADD15C,0.0520*%
%ADD16C,0.0990*%
%ADD17C,0.0160*%
%ADD18C,0.0396*%
D10*
X000675Y000100D02*
X000675Y025470D01*
X015168Y025470D01*
X015168Y000100D01*
X000675Y000100D01*
X001458Y003100D02*
X001460Y003129D01*
X001466Y003157D01*
X001475Y003185D01*
X001488Y003211D01*
X001505Y003234D01*
X001524Y003256D01*
X001546Y003275D01*
X001571Y003290D01*
X001597Y003303D01*
X001625Y003311D01*
X001653Y003316D01*
X001682Y003317D01*
X001711Y003314D01*
X001739Y003307D01*
X001766Y003297D01*
X001792Y003283D01*
X001815Y003266D01*
X001836Y003246D01*
X001854Y003223D01*
X001869Y003198D01*
X001880Y003171D01*
X001888Y003143D01*
X001892Y003114D01*
X001892Y003086D01*
X001888Y003057D01*
X001880Y003029D01*
X001869Y003002D01*
X001854Y002977D01*
X001836Y002954D01*
X001815Y002934D01*
X001792Y002917D01*
X001766Y002903D01*
X001739Y002893D01*
X001711Y002886D01*
X001682Y002883D01*
X001653Y002884D01*
X001625Y002889D01*
X001597Y002897D01*
X001571Y002910D01*
X001546Y002925D01*
X001524Y002944D01*
X001505Y002966D01*
X001488Y002989D01*
X001475Y003015D01*
X001466Y003043D01*
X001460Y003071D01*
X001458Y003100D01*
X001458Y006100D02*
X001460Y006129D01*
X001466Y006157D01*
X001475Y006185D01*
X001488Y006211D01*
X001505Y006234D01*
X001524Y006256D01*
X001546Y006275D01*
X001571Y006290D01*
X001597Y006303D01*
X001625Y006311D01*
X001653Y006316D01*
X001682Y006317D01*
X001711Y006314D01*
X001739Y006307D01*
X001766Y006297D01*
X001792Y006283D01*
X001815Y006266D01*
X001836Y006246D01*
X001854Y006223D01*
X001869Y006198D01*
X001880Y006171D01*
X001888Y006143D01*
X001892Y006114D01*
X001892Y006086D01*
X001888Y006057D01*
X001880Y006029D01*
X001869Y006002D01*
X001854Y005977D01*
X001836Y005954D01*
X001815Y005934D01*
X001792Y005917D01*
X001766Y005903D01*
X001739Y005893D01*
X001711Y005886D01*
X001682Y005883D01*
X001653Y005884D01*
X001625Y005889D01*
X001597Y005897D01*
X001571Y005910D01*
X001546Y005925D01*
X001524Y005944D01*
X001505Y005966D01*
X001488Y005989D01*
X001475Y006015D01*
X001466Y006043D01*
X001460Y006071D01*
X001458Y006100D01*
X001458Y009100D02*
X001460Y009129D01*
X001466Y009157D01*
X001475Y009185D01*
X001488Y009211D01*
X001505Y009234D01*
X001524Y009256D01*
X001546Y009275D01*
X001571Y009290D01*
X001597Y009303D01*
X001625Y009311D01*
X001653Y009316D01*
X001682Y009317D01*
X001711Y009314D01*
X001739Y009307D01*
X001766Y009297D01*
X001792Y009283D01*
X001815Y009266D01*
X001836Y009246D01*
X001854Y009223D01*
X001869Y009198D01*
X001880Y009171D01*
X001888Y009143D01*
X001892Y009114D01*
X001892Y009086D01*
X001888Y009057D01*
X001880Y009029D01*
X001869Y009002D01*
X001854Y008977D01*
X001836Y008954D01*
X001815Y008934D01*
X001792Y008917D01*
X001766Y008903D01*
X001739Y008893D01*
X001711Y008886D01*
X001682Y008883D01*
X001653Y008884D01*
X001625Y008889D01*
X001597Y008897D01*
X001571Y008910D01*
X001546Y008925D01*
X001524Y008944D01*
X001505Y008966D01*
X001488Y008989D01*
X001475Y009015D01*
X001466Y009043D01*
X001460Y009071D01*
X001458Y009100D01*
X001458Y012100D02*
X001460Y012129D01*
X001466Y012157D01*
X001475Y012185D01*
X001488Y012211D01*
X001505Y012234D01*
X001524Y012256D01*
X001546Y012275D01*
X001571Y012290D01*
X001597Y012303D01*
X001625Y012311D01*
X001653Y012316D01*
X001682Y012317D01*
X001711Y012314D01*
X001739Y012307D01*
X001766Y012297D01*
X001792Y012283D01*
X001815Y012266D01*
X001836Y012246D01*
X001854Y012223D01*
X001869Y012198D01*
X001880Y012171D01*
X001888Y012143D01*
X001892Y012114D01*
X001892Y012086D01*
X001888Y012057D01*
X001880Y012029D01*
X001869Y012002D01*
X001854Y011977D01*
X001836Y011954D01*
X001815Y011934D01*
X001792Y011917D01*
X001766Y011903D01*
X001739Y011893D01*
X001711Y011886D01*
X001682Y011883D01*
X001653Y011884D01*
X001625Y011889D01*
X001597Y011897D01*
X001571Y011910D01*
X001546Y011925D01*
X001524Y011944D01*
X001505Y011966D01*
X001488Y011989D01*
X001475Y012015D01*
X001466Y012043D01*
X001460Y012071D01*
X001458Y012100D01*
X001458Y015100D02*
X001460Y015129D01*
X001466Y015157D01*
X001475Y015185D01*
X001488Y015211D01*
X001505Y015234D01*
X001524Y015256D01*
X001546Y015275D01*
X001571Y015290D01*
X001597Y015303D01*
X001625Y015311D01*
X001653Y015316D01*
X001682Y015317D01*
X001711Y015314D01*
X001739Y015307D01*
X001766Y015297D01*
X001792Y015283D01*
X001815Y015266D01*
X001836Y015246D01*
X001854Y015223D01*
X001869Y015198D01*
X001880Y015171D01*
X001888Y015143D01*
X001892Y015114D01*
X001892Y015086D01*
X001888Y015057D01*
X001880Y015029D01*
X001869Y015002D01*
X001854Y014977D01*
X001836Y014954D01*
X001815Y014934D01*
X001792Y014917D01*
X001766Y014903D01*
X001739Y014893D01*
X001711Y014886D01*
X001682Y014883D01*
X001653Y014884D01*
X001625Y014889D01*
X001597Y014897D01*
X001571Y014910D01*
X001546Y014925D01*
X001524Y014944D01*
X001505Y014966D01*
X001488Y014989D01*
X001475Y015015D01*
X001466Y015043D01*
X001460Y015071D01*
X001458Y015100D01*
X001458Y018100D02*
X001460Y018129D01*
X001466Y018157D01*
X001475Y018185D01*
X001488Y018211D01*
X001505Y018234D01*
X001524Y018256D01*
X001546Y018275D01*
X001571Y018290D01*
X001597Y018303D01*
X001625Y018311D01*
X001653Y018316D01*
X001682Y018317D01*
X001711Y018314D01*
X001739Y018307D01*
X001766Y018297D01*
X001792Y018283D01*
X001815Y018266D01*
X001836Y018246D01*
X001854Y018223D01*
X001869Y018198D01*
X001880Y018171D01*
X001888Y018143D01*
X001892Y018114D01*
X001892Y018086D01*
X001888Y018057D01*
X001880Y018029D01*
X001869Y018002D01*
X001854Y017977D01*
X001836Y017954D01*
X001815Y017934D01*
X001792Y017917D01*
X001766Y017903D01*
X001739Y017893D01*
X001711Y017886D01*
X001682Y017883D01*
X001653Y017884D01*
X001625Y017889D01*
X001597Y017897D01*
X001571Y017910D01*
X001546Y017925D01*
X001524Y017944D01*
X001505Y017966D01*
X001488Y017989D01*
X001475Y018015D01*
X001466Y018043D01*
X001460Y018071D01*
X001458Y018100D01*
X001458Y021100D02*
X001460Y021129D01*
X001466Y021157D01*
X001475Y021185D01*
X001488Y021211D01*
X001505Y021234D01*
X001524Y021256D01*
X001546Y021275D01*
X001571Y021290D01*
X001597Y021303D01*
X001625Y021311D01*
X001653Y021316D01*
X001682Y021317D01*
X001711Y021314D01*
X001739Y021307D01*
X001766Y021297D01*
X001792Y021283D01*
X001815Y021266D01*
X001836Y021246D01*
X001854Y021223D01*
X001869Y021198D01*
X001880Y021171D01*
X001888Y021143D01*
X001892Y021114D01*
X001892Y021086D01*
X001888Y021057D01*
X001880Y021029D01*
X001869Y021002D01*
X001854Y020977D01*
X001836Y020954D01*
X001815Y020934D01*
X001792Y020917D01*
X001766Y020903D01*
X001739Y020893D01*
X001711Y020886D01*
X001682Y020883D01*
X001653Y020884D01*
X001625Y020889D01*
X001597Y020897D01*
X001571Y020910D01*
X001546Y020925D01*
X001524Y020944D01*
X001505Y020966D01*
X001488Y020989D01*
X001475Y021015D01*
X001466Y021043D01*
X001460Y021071D01*
X001458Y021100D01*
X001458Y023600D02*
X001460Y023629D01*
X001466Y023657D01*
X001475Y023685D01*
X001488Y023711D01*
X001505Y023734D01*
X001524Y023756D01*
X001546Y023775D01*
X001571Y023790D01*
X001597Y023803D01*
X001625Y023811D01*
X001653Y023816D01*
X001682Y023817D01*
X001711Y023814D01*
X001739Y023807D01*
X001766Y023797D01*
X001792Y023783D01*
X001815Y023766D01*
X001836Y023746D01*
X001854Y023723D01*
X001869Y023698D01*
X001880Y023671D01*
X001888Y023643D01*
X001892Y023614D01*
X001892Y023586D01*
X001888Y023557D01*
X001880Y023529D01*
X001869Y023502D01*
X001854Y023477D01*
X001836Y023454D01*
X001815Y023434D01*
X001792Y023417D01*
X001766Y023403D01*
X001739Y023393D01*
X001711Y023386D01*
X001682Y023383D01*
X001653Y023384D01*
X001625Y023389D01*
X001597Y023397D01*
X001571Y023410D01*
X001546Y023425D01*
X001524Y023444D01*
X001505Y023466D01*
X001488Y023489D01*
X001475Y023515D01*
X001466Y023543D01*
X001460Y023571D01*
X001458Y023600D01*
X003821Y023600D02*
X003823Y023629D01*
X003829Y023657D01*
X003838Y023685D01*
X003851Y023711D01*
X003868Y023734D01*
X003887Y023756D01*
X003909Y023775D01*
X003934Y023790D01*
X003960Y023803D01*
X003988Y023811D01*
X004016Y023816D01*
X004045Y023817D01*
X004074Y023814D01*
X004102Y023807D01*
X004129Y023797D01*
X004155Y023783D01*
X004178Y023766D01*
X004199Y023746D01*
X004217Y023723D01*
X004232Y023698D01*
X004243Y023671D01*
X004251Y023643D01*
X004255Y023614D01*
X004255Y023586D01*
X004251Y023557D01*
X004243Y023529D01*
X004232Y023502D01*
X004217Y023477D01*
X004199Y023454D01*
X004178Y023434D01*
X004155Y023417D01*
X004129Y023403D01*
X004102Y023393D01*
X004074Y023386D01*
X004045Y023383D01*
X004016Y023384D01*
X003988Y023389D01*
X003960Y023397D01*
X003934Y023410D01*
X003909Y023425D01*
X003887Y023444D01*
X003868Y023466D01*
X003851Y023489D01*
X003838Y023515D01*
X003829Y023543D01*
X003823Y023571D01*
X003821Y023600D01*
X003821Y021100D02*
X003823Y021129D01*
X003829Y021157D01*
X003838Y021185D01*
X003851Y021211D01*
X003868Y021234D01*
X003887Y021256D01*
X003909Y021275D01*
X003934Y021290D01*
X003960Y021303D01*
X003988Y021311D01*
X004016Y021316D01*
X004045Y021317D01*
X004074Y021314D01*
X004102Y021307D01*
X004129Y021297D01*
X004155Y021283D01*
X004178Y021266D01*
X004199Y021246D01*
X004217Y021223D01*
X004232Y021198D01*
X004243Y021171D01*
X004251Y021143D01*
X004255Y021114D01*
X004255Y021086D01*
X004251Y021057D01*
X004243Y021029D01*
X004232Y021002D01*
X004217Y020977D01*
X004199Y020954D01*
X004178Y020934D01*
X004155Y020917D01*
X004129Y020903D01*
X004102Y020893D01*
X004074Y020886D01*
X004045Y020883D01*
X004016Y020884D01*
X003988Y020889D01*
X003960Y020897D01*
X003934Y020910D01*
X003909Y020925D01*
X003887Y020944D01*
X003868Y020966D01*
X003851Y020989D01*
X003838Y021015D01*
X003829Y021043D01*
X003823Y021071D01*
X003821Y021100D01*
X003821Y018100D02*
X003823Y018129D01*
X003829Y018157D01*
X003838Y018185D01*
X003851Y018211D01*
X003868Y018234D01*
X003887Y018256D01*
X003909Y018275D01*
X003934Y018290D01*
X003960Y018303D01*
X003988Y018311D01*
X004016Y018316D01*
X004045Y018317D01*
X004074Y018314D01*
X004102Y018307D01*
X004129Y018297D01*
X004155Y018283D01*
X004178Y018266D01*
X004199Y018246D01*
X004217Y018223D01*
X004232Y018198D01*
X004243Y018171D01*
X004251Y018143D01*
X004255Y018114D01*
X004255Y018086D01*
X004251Y018057D01*
X004243Y018029D01*
X004232Y018002D01*
X004217Y017977D01*
X004199Y017954D01*
X004178Y017934D01*
X004155Y017917D01*
X004129Y017903D01*
X004102Y017893D01*
X004074Y017886D01*
X004045Y017883D01*
X004016Y017884D01*
X003988Y017889D01*
X003960Y017897D01*
X003934Y017910D01*
X003909Y017925D01*
X003887Y017944D01*
X003868Y017966D01*
X003851Y017989D01*
X003838Y018015D01*
X003829Y018043D01*
X003823Y018071D01*
X003821Y018100D01*
X003821Y015100D02*
X003823Y015129D01*
X003829Y015157D01*
X003838Y015185D01*
X003851Y015211D01*
X003868Y015234D01*
X003887Y015256D01*
X003909Y015275D01*
X003934Y015290D01*
X003960Y015303D01*
X003988Y015311D01*
X004016Y015316D01*
X004045Y015317D01*
X004074Y015314D01*
X004102Y015307D01*
X004129Y015297D01*
X004155Y015283D01*
X004178Y015266D01*
X004199Y015246D01*
X004217Y015223D01*
X004232Y015198D01*
X004243Y015171D01*
X004251Y015143D01*
X004255Y015114D01*
X004255Y015086D01*
X004251Y015057D01*
X004243Y015029D01*
X004232Y015002D01*
X004217Y014977D01*
X004199Y014954D01*
X004178Y014934D01*
X004155Y014917D01*
X004129Y014903D01*
X004102Y014893D01*
X004074Y014886D01*
X004045Y014883D01*
X004016Y014884D01*
X003988Y014889D01*
X003960Y014897D01*
X003934Y014910D01*
X003909Y014925D01*
X003887Y014944D01*
X003868Y014966D01*
X003851Y014989D01*
X003838Y015015D01*
X003829Y015043D01*
X003823Y015071D01*
X003821Y015100D01*
X003821Y012100D02*
X003823Y012129D01*
X003829Y012157D01*
X003838Y012185D01*
X003851Y012211D01*
X003868Y012234D01*
X003887Y012256D01*
X003909Y012275D01*
X003934Y012290D01*
X003960Y012303D01*
X003988Y012311D01*
X004016Y012316D01*
X004045Y012317D01*
X004074Y012314D01*
X004102Y012307D01*
X004129Y012297D01*
X004155Y012283D01*
X004178Y012266D01*
X004199Y012246D01*
X004217Y012223D01*
X004232Y012198D01*
X004243Y012171D01*
X004251Y012143D01*
X004255Y012114D01*
X004255Y012086D01*
X004251Y012057D01*
X004243Y012029D01*
X004232Y012002D01*
X004217Y011977D01*
X004199Y011954D01*
X004178Y011934D01*
X004155Y011917D01*
X004129Y011903D01*
X004102Y011893D01*
X004074Y011886D01*
X004045Y011883D01*
X004016Y011884D01*
X003988Y011889D01*
X003960Y011897D01*
X003934Y011910D01*
X003909Y011925D01*
X003887Y011944D01*
X003868Y011966D01*
X003851Y011989D01*
X003838Y012015D01*
X003829Y012043D01*
X003823Y012071D01*
X003821Y012100D01*
X003821Y009100D02*
X003823Y009129D01*
X003829Y009157D01*
X003838Y009185D01*
X003851Y009211D01*
X003868Y009234D01*
X003887Y009256D01*
X003909Y009275D01*
X003934Y009290D01*
X003960Y009303D01*
X003988Y009311D01*
X004016Y009316D01*
X004045Y009317D01*
X004074Y009314D01*
X004102Y009307D01*
X004129Y009297D01*
X004155Y009283D01*
X004178Y009266D01*
X004199Y009246D01*
X004217Y009223D01*
X004232Y009198D01*
X004243Y009171D01*
X004251Y009143D01*
X004255Y009114D01*
X004255Y009086D01*
X004251Y009057D01*
X004243Y009029D01*
X004232Y009002D01*
X004217Y008977D01*
X004199Y008954D01*
X004178Y008934D01*
X004155Y008917D01*
X004129Y008903D01*
X004102Y008893D01*
X004074Y008886D01*
X004045Y008883D01*
X004016Y008884D01*
X003988Y008889D01*
X003960Y008897D01*
X003934Y008910D01*
X003909Y008925D01*
X003887Y008944D01*
X003868Y008966D01*
X003851Y008989D01*
X003838Y009015D01*
X003829Y009043D01*
X003823Y009071D01*
X003821Y009100D01*
X003821Y006100D02*
X003823Y006129D01*
X003829Y006157D01*
X003838Y006185D01*
X003851Y006211D01*
X003868Y006234D01*
X003887Y006256D01*
X003909Y006275D01*
X003934Y006290D01*
X003960Y006303D01*
X003988Y006311D01*
X004016Y006316D01*
X004045Y006317D01*
X004074Y006314D01*
X004102Y006307D01*
X004129Y006297D01*
X004155Y006283D01*
X004178Y006266D01*
X004199Y006246D01*
X004217Y006223D01*
X004232Y006198D01*
X004243Y006171D01*
X004251Y006143D01*
X004255Y006114D01*
X004255Y006086D01*
X004251Y006057D01*
X004243Y006029D01*
X004232Y006002D01*
X004217Y005977D01*
X004199Y005954D01*
X004178Y005934D01*
X004155Y005917D01*
X004129Y005903D01*
X004102Y005893D01*
X004074Y005886D01*
X004045Y005883D01*
X004016Y005884D01*
X003988Y005889D01*
X003960Y005897D01*
X003934Y005910D01*
X003909Y005925D01*
X003887Y005944D01*
X003868Y005966D01*
X003851Y005989D01*
X003838Y006015D01*
X003829Y006043D01*
X003823Y006071D01*
X003821Y006100D01*
X003821Y003100D02*
X003823Y003129D01*
X003829Y003157D01*
X003838Y003185D01*
X003851Y003211D01*
X003868Y003234D01*
X003887Y003256D01*
X003909Y003275D01*
X003934Y003290D01*
X003960Y003303D01*
X003988Y003311D01*
X004016Y003316D01*
X004045Y003317D01*
X004074Y003314D01*
X004102Y003307D01*
X004129Y003297D01*
X004155Y003283D01*
X004178Y003266D01*
X004199Y003246D01*
X004217Y003223D01*
X004232Y003198D01*
X004243Y003171D01*
X004251Y003143D01*
X004255Y003114D01*
X004255Y003086D01*
X004251Y003057D01*
X004243Y003029D01*
X004232Y003002D01*
X004217Y002977D01*
X004199Y002954D01*
X004178Y002934D01*
X004155Y002917D01*
X004129Y002903D01*
X004102Y002893D01*
X004074Y002886D01*
X004045Y002883D01*
X004016Y002884D01*
X003988Y002889D01*
X003960Y002897D01*
X003934Y002910D01*
X003909Y002925D01*
X003887Y002944D01*
X003868Y002966D01*
X003851Y002989D01*
X003838Y003015D01*
X003829Y003043D01*
X003823Y003071D01*
X003821Y003100D01*
D11*
X007175Y012330D03*
X008175Y012330D03*
X009175Y012330D03*
X010175Y012330D03*
X010175Y015870D03*
X009175Y015870D03*
X008175Y015870D03*
X007175Y015870D03*
D12*
X003920Y014372D03*
X003920Y017372D03*
X002069Y018828D03*
X001557Y017372D03*
X002069Y015828D03*
X001557Y014372D03*
X002069Y012828D03*
X001557Y011372D03*
X002069Y009828D03*
X001557Y008372D03*
X002069Y006828D03*
X001557Y005372D03*
X002069Y003828D03*
X001557Y002372D03*
X003920Y002372D03*
X003920Y005372D03*
X003920Y008372D03*
X003920Y011372D03*
X003920Y020372D03*
X003920Y022872D03*
X002069Y021828D03*
X001557Y022872D03*
X002069Y024328D03*
X001557Y020372D03*
D13*
X007175Y009600D03*
X007175Y008600D03*
X007175Y007600D03*
X007175Y006600D03*
X007175Y005600D03*
X007175Y004600D03*
X007175Y003600D03*
X007175Y002600D03*
X010175Y002600D03*
X010175Y003600D03*
X010175Y004600D03*
X010175Y005600D03*
X010175Y006600D03*
X010175Y007600D03*
X010175Y008600D03*
X010175Y009600D03*
X011675Y012600D03*
X011675Y015600D03*
X012175Y017600D03*
X013175Y017600D03*
D14*
X010925Y018600D03*
X009425Y018600D03*
X007925Y018600D03*
X007425Y011100D03*
X008925Y011100D03*
X010425Y011100D03*
D15*
X013175Y012340D02*
X013175Y012860D01*
X013175Y015340D02*
X013175Y015860D01*
D16*
X012395Y009595D02*
X012395Y008605D01*
X013955Y008605D02*
X013955Y009595D01*
X013955Y004595D02*
X013955Y003605D01*
X012395Y003605D02*
X012395Y004595D01*
D17*
X009175Y011100D02*
X008925Y011100D01*
X009175Y018600D02*
X009425Y018600D01*
D18*
X009175Y018600D03*
X009175Y016100D03*
X008175Y016100D03*
X007175Y016100D03*
X007175Y012100D03*
X008175Y012100D03*
X009175Y012100D03*
X009175Y011100D03*
X010175Y012100D03*
X010175Y016100D03*
M02*
