%
M48
M72
T01C0.0236
T02C0.0320
T03C0.0433
T04C0.0660
%
T01
X7175Y12100
X8175Y12100
X9175Y12100
X9175Y11100
X10175Y12100
X10175Y16100
X9175Y16100
X8175Y16100
X7175Y16100
X9175Y18600
T02
X9425Y18600
X7925Y18600
X10925Y18600
X12175Y17600
X13175Y17600
X13175Y15600
X11675Y15600
X11675Y12600
X13175Y12600
X10425Y11100
X10175Y9600
X10175Y8600
X10175Y7600
X10175Y6600
X10175Y5600
X10175Y4600
X10175Y3600
X10175Y2600
X7175Y2600
X7175Y3600
X7175Y4600
X7175Y5600
X7175Y6600
X7175Y7600
X7175Y8600
X7175Y9600
X7425Y11100
X8925Y11100
T03
X1557Y2372
X1675Y3100
X2069Y3828
X1557Y5372
X1675Y6100
X2069Y6828
X1557Y8372
X1675Y9100
X2069Y9828
X1557Y11372
X1675Y12100
X2069Y12828
X1557Y14372
X1675Y15100
X2069Y15828
X1557Y17372
X1675Y18100
X2069Y18828
X1557Y20372
X1675Y21100
X2069Y21828
X1557Y22872
X1675Y23600
X2069Y24328
X3920Y22872
X4038Y23600
X4038Y21100
X3920Y20372
X4038Y18100
X3920Y17372
X4038Y15100
X3920Y14372
X4038Y12100
X3920Y11372
X4038Y9100
X3920Y8372
X4038Y6100
X3920Y5372
X4038Y3100
X3920Y2372
T04
X12395Y4100
X13955Y4100
X13955Y9100
X12395Y9100
M30
